<svg width="121" height="153" viewBox="0 0 121 153" fill="none" xmlns="http://www.w3.org/2000/svg">
<g clip-path="url(#clip0_1_1069)">
<path d="M94.7207 85.7001C93.7111 75.1768 84.625 71.6493 73.1576 70.6457V56.0486H64.2734V70.2597C61.9396 70.2597 59.5522 70.3072 57.1768 70.3547V56.0486H48.2986V70.6397C46.3745 70.6813 44.486 70.7169 42.645 70.7169V70.6694H30.3937V80.1593C30.3937 80.1593 36.9558 80.0346 36.8489 80.1593C40.4477 80.1593 41.6176 82.2497 41.9621 84.0551V124.04C41.8077 125.174 41.1366 126.979 38.6246 126.985C38.7374 127.086 32.1693 126.985 32.1693 126.985L30.4056 137.598H41.968C44.1178 137.598 46.2379 137.633 48.3164 137.651V152.414H57.1946V137.811C59.6294 137.859 61.9871 137.883 64.2912 137.877V152.414H73.1754V137.681C88.111 136.826 98.5689 133.06 99.8635 119.033C100.909 107.738 95.5996 102.702 87.1193 100.665C92.268 98.0405 95.4927 93.4202 94.7385 85.7238L94.7207 85.7001ZM82.2912 117.264C82.2912 128.298 63.4064 127.039 57.3846 127.045V107.489C63.4064 107.489 82.2912 105.755 82.2912 117.264ZM78.1579 89.667C78.1579 99.7033 62.4028 98.5334 57.3906 98.5334V80.7948C62.4087 80.7948 78.1579 79.1973 78.1638 89.667H78.1579Z" fill="#3A7875"/>
<path d="M68.4959 35.5723H68.686L60.7104 0L52.7349 35.5723H52.9249C55.431 35.2278 58.038 35.0497 60.7104 35.0497C63.3828 35.0497 65.9898 35.2338 68.4959 35.5723Z" fill="#3A7875"/>
<path d="M86.6799 41.9444L100.149 14.4961L73.2527 36.4452C78.4133 37.633 82.992 39.5333 86.6739 41.9503L86.6799 41.9444Z" fill="#3A7875"/>
<path d="M89.7086 44.2248C93.2658 47.3069 95.5225 50.9829 95.9976 54.9618L120.72 38.8029L89.7146 44.2248H89.7086Z" fill="#3A7875"/>
<path d="M31.6587 44.2723L0 38.8029L25.3994 55.2112C25.8032 51.1611 28.0599 47.4138 31.6587 44.2723Z" fill="#3A7875"/>
<path d="M47.9959 36.4809L20.5714 14.4961L34.3965 42.176C38.0962 39.6818 42.7402 37.7102 47.9959 36.4809Z" fill="#3A7875"/>
<path d="M32.585 62.7948L30.4828 57.6936C30.2215 57.0581 30.5243 56.3277 31.1598 56.0664C31.7952 55.8051 32.5257 56.108 32.787 56.7434L34.4201 60.6985C35.1446 59.9681 35.9344 59.2614 36.7777 58.5962L34.2657 52.5032C33.9034 51.6243 34.3251 50.6029 35.204 50.2406C36.0829 49.8784 37.1043 50.3 37.4666 51.1789L39.6995 56.5831C40.7506 55.9476 41.8611 55.3597 43.0311 54.8252L40.9882 48.3225C40.6437 47.2357 41.2554 46.0658 42.3422 45.7273C43.4289 45.3828 44.5988 45.9945 44.9373 47.0813L46.8971 53.3109C48.0611 52.9249 49.2607 52.5923 50.4959 52.3013L49.5813 45.2997C49.4329 44.1714 50.2405 43.1262 51.3689 42.9777C52.4972 42.8292 53.5424 43.6369 53.6909 44.7652L54.5757 51.559C55.906 51.3808 57.2659 51.2621 58.6496 51.2027V43.9873C58.6496 42.8471 59.582 41.9147 60.7222 41.9147C61.8624 41.9147 62.7947 42.8471 62.7947 43.9873V51.2027C64.1784 51.2621 65.5384 51.3868 66.8686 51.559L67.7535 44.7652C67.9019 43.6369 68.9471 42.8292 70.0755 42.9777C71.2038 43.1262 72.0115 44.1714 71.863 45.2997L70.9484 52.3013C72.1837 52.5864 73.3833 52.9249 74.5472 53.3109L76.507 47.0813C76.8514 45.9945 78.0154 45.3828 79.1022 45.7273C80.1889 46.0717 80.8006 47.2357 80.4562 48.3225L78.4133 54.8252C79.5832 55.3597 80.6937 55.9476 81.7448 56.5831L83.9778 51.1789C84.34 50.3 85.3614 49.8724 86.2404 50.2406C87.1193 50.6088 87.5469 51.6243 87.1787 52.5032L84.6666 58.5962C85.5159 59.2614 86.2997 59.9621 87.0243 60.6985L88.6574 56.7434C88.9187 56.108 89.6491 55.8051 90.2846 56.0664C90.92 56.3277 91.2229 57.0581 90.9616 57.6936L88.8593 62.7948C89.275 63.3353 89.6551 63.8935 89.9995 64.4636L94.1803 58.4181C93.2123 47.111 78.6092 38.1318 60.734 38.1318C42.8588 38.1318 28.3271 47.0694 27.2997 58.3468L31.4983 64.422C31.8368 63.8697 32.205 63.3293 32.6088 62.8008L32.585 62.7948Z" fill="#3A7875"/>
</g>
<defs>
<clipPath id="clip0_1_1069">
<rect width="120.72" height="152.397" fill="#3A7875"/>
</clipPath>
</defs>
</svg>
